HIERARCHY
ROOT hip
{
	OFFSET 0.000000 0.000000 0.000000 
	CHANNELS 6 Xposition Yposition Zposition Xrotation Zrotation Yrotation
	JOINT abdomen
	{
		OFFSET 0.000000 3.402643 0.000000 
		CHANNELS 3 Xrotation Zrotation Yrotation
		JOINT chest
		{
			OFFSET 0.000000 8.438565 -0.680529 
			CHANNELS 3 Xrotation Zrotation Yrotation
			JOINT neck
			{
				OFFSET 0.000000 10.207942 -0.272212 
				CHANNELS 3 Xrotation Zrotation Yrotation
				JOINT head
				{
					OFFSET 0.000000 3.130431 0.000000 
					CHANNELS 3 Xrotation Zrotation Yrotation
					End Site
					{
						OFFSET 0.000000 3.130435 0.000000 
					}
				}
			}
			JOINT lCollar
			{
				OFFSET 3.470700 6.669187 -0.816635 
				CHANNELS 3 Yrotation Zrotation Xrotation
				JOINT lShldr
				{
					OFFSET 3.198488 0.000000 0.000000 
					CHANNELS 3 Zrotation Yrotation Xrotation
					JOINT lForeArm
					{
						OFFSET 10.139888 0.000000 0.000000 
						CHANNELS 3 Yrotation Zrotation Xrotation
						JOINT lHand
						{
							OFFSET 8.370511 0.000000 0.000000 
							CHANNELS 3 Zrotation Yrotation Xrotation
							End Site
							{
								OFFSET 4.083176 0.000000 0.000000 
							}
						}
					}
				}
			}
			JOINT rCollar
			{
				OFFSET -3.470700 6.669187 -0.816635 
				CHANNELS 3 Yrotation Zrotation Xrotation
				JOINT rShldr
				{
					OFFSET -3.198488 0.000000 0.000000 
					CHANNELS 3 Zrotation Yrotation Xrotation
					JOINT rForeArm
					{
						OFFSET -10.139888 0.000000 0.000000 
						CHANNELS 3 Yrotation Zrotation Xrotation
						JOINT rHand
						{
							OFFSET -8.370511 0.000000 0.000000 
							CHANNELS 3 Zrotation Yrotation Xrotation
							End Site
							{
								OFFSET -4.083176 0.000000 0.000000 
							}
						}
					}
				}
			}
		}
	}
	JOINT lThigh
	{
		OFFSET 5.308129 -1.633274 1.361059 
		CHANNELS 3 Xrotation Zrotation Yrotation
		JOINT lShin
		{
			OFFSET -2.041588 -20.007561 0.000000 
			CHANNELS 3 Xrotation Zrotation Yrotation
			JOINT lFoot
			{
				OFFSET 0.000000 -19.190928 -1.224953 
				CHANNELS 3 Xrotation Yrotation Zrotation
				End Site
				{
					OFFSET 0.000000 -2.449906 4.627600 
				}
			}
		}
	}
	JOINT rThigh
	{
		OFFSET -5.308129 -1.633274 1.361059 
		CHANNELS 3 Xrotation Zrotation Yrotation
		JOINT rShin
		{
			OFFSET 2.041588 -20.007561 0.000000 
			CHANNELS 3 Xrotation Zrotation Yrotation
			JOINT rFoot
			{
				OFFSET 0.000000 -19.190928 -1.224953 
				CHANNELS 3 Xrotation Yrotation Zrotation
				End Site
				{
					OFFSET 0.000000 -2.449906 4.627600 
				}
			}
		}
	}
}
MOTION
Frames: 11
Frame Time: 0.033333
-16.784590 51.340485 -1.877082 -11.103515 10.693359 -155.193497 34.276459 -18.246689 -7.394229 -20.742188 6.904297 0.976563 51.063168 8.107644 2.471410 -72.812500 -1.503906 2.011719 2.000000 -2.000000 0.000000 -68.720703 16.904299 -12.958984 -67.270271 -1.101638 -2.504481 2.049368 68.035202 -7.237001 -2.000000 2.000000 0.000000 47.607418 -16.347654 36.630859 77.071556 0.655875 -2.745761 -87.249390 -65.086075 103.171211 -26.718504 18.915777 20.404219 26.869522 -4.751737 -2.478403 -6.109833 5.729628 -4.647132 -14.343516 -13.139932 -21.575909 29.526327 4.432919 2.448101 3.592644 -12.627511 19.011900 
-16.876814 51.537430 -1.863210 -10.556641 10.195313 -154.275620 33.844059 -18.074247 -6.989235 -20.742188 7.080078 1.171875 51.063168 8.107644 2.471410 -70.351563 -1.582031 2.246094 2.000000 -2.000000 0.000000 -69.091797 16.884766 -12.731539 -67.791000 -0.932380 -2.621890 1.419641 67.468178 -8.148290 -2.000000 2.000000 0.000000 48.339844 -17.392578 35.171551 76.543930 0.674808 -2.734888 -88.204208 -65.557297 106.446533 -26.523045 18.534687 19.869625 26.884424 -4.663437 -2.440433 -5.567205 5.475770 -4.424966 -16.724504 -10.561048 -21.063564 33.757843 4.214193 2.878317 3.253030 -9.048565 15.043089 
-16.786207 51.821041 -1.877657 -9.453125 8.828126 -153.173828 33.429878 -18.045931 -6.676055 -20.742188 7.080078 1.347657 51.063168 8.107644 2.471410 -67.695313 -1.679687 2.460938 2.000000 -2.000000 0.000000 -70.224609 17.138672 -12.988282 -68.150284 -1.084405 -2.544597 0.213102 66.901939 -9.705863 -2.000000 2.000000 0.000000 48.349613 -17.988279 34.088779 76.543930 0.674808 -2.734888 -89.563980 -66.566002 109.983025 -24.995798 17.513451 20.247026 26.884142 -4.658910 -2.468583 -5.224132 5.125291 -4.120823 -15.249895 -9.974874 -21.199018 33.227303 4.262654 2.664864 2.194559 -7.455287 13.593855 
-16.695602 52.049500 -1.892102 -8.515625 7.460938 -152.108627 32.978130 -17.882681 -6.271538 -20.908203 7.265625 1.700454 51.063168 8.107644 2.471410 -65.058594 -1.757812 2.509766 2.000000 -2.000000 0.000000 -71.132813 17.236328 -12.890625 -68.325821 -1.064341 -2.535986 -0.309280 65.779503 -10.636773 -2.000000 2.000000 0.000000 48.486328 -18.701172 33.017574 76.543930 0.674808 -2.734888 88.277931 -112.525703 -65.545937 -23.603449 16.611340 20.424175 26.691263 -4.690794 -2.440806 -4.606351 4.663649 -3.402718 -13.892115 -9.475834 -21.389875 32.873146 4.247171 2.670981 1.553988 -5.913172 12.176894 
-16.587173 51.986488 -2.702649 -7.451172 5.917969 -151.259750 32.696266 -17.761566 -5.732494 -20.898438 7.441407 1.905562 51.063168 8.107644 2.471410 -62.236328 -1.660156 2.529297 2.000000 -2.000000 0.000000 -72.148438 18.505859 -13.561350 -68.150024 -1.074090 -2.535419 -0.368172 65.818657 -10.450535 -2.000000 2.000000 0.000000 47.578129 -18.437500 33.209805 76.719711 0.665059 -2.735452 86.443199 -112.377968 -61.712849 -22.496248 16.010012 20.376263 26.698788 -4.766279 -2.457225 -3.940385 4.200576 -3.373100 -10.133389 -9.357591 -22.716940 29.887657 4.423105 2.630399 -3.317959 -6.570853 11.743521 
-16.478865 51.805283 -3.513194 -6.542969 4.355469 -150.438721 32.231945 -17.678047 -5.173364 -20.898438 7.607422 2.110668 51.063168 8.107644 2.471410 -59.404301 -1.757813 2.578125 2.000000 -2.000000 0.000000 -73.466797 19.345701 -14.501953 -68.162300 -1.235738 -2.623798 -0.623439 65.692139 -10.330153 -2.000000 2.000000 0.000000 46.689457 -18.173826 33.190315 76.895500 0.655309 -2.736016 83.919144 -112.190674 -57.564323 -20.943300 14.964656 21.043386 27.037304 -4.653352 -2.664793 -4.020251 3.902695 -2.500606 -6.307642 -9.163998 -23.651363 26.535828 4.593125 2.193060 -8.267928 -7.501912 11.453545 
-16.251129 51.694992 -3.897977 -5.830078 3.134766 -149.912109 31.813427 -17.637508 -4.862961 -21.074219 7.607422 2.441406 51.063168 8.107644 2.471410 -56.582031 -1.640625 2.646485 2.000000 -2.000000 0.000000 -74.765625 20.673828 -16.269531 -67.622650 -1.103337 -2.533717 -0.196300 66.140678 -9.358629 -2.000000 2.000000 0.000000 46.298828 -17.197266 32.744141 77.071556 0.655875 -2.745761 82.206848 -112.367889 -54.023327 -20.367657 14.555367 20.674318 26.698786 -4.766304 -2.457232 -3.192132 3.763267 -2.907205 -4.013520 -9.122218 -24.567646 24.429230 4.657299 2.053535 -11.230868 -7.631359 10.170293 
-16.023396 51.545311 -4.282761 -5.292969 2.089844 -149.443359 31.344118 -17.532593 -4.306206 -21.064455 7.783204 2.646484 51.063168 8.107644 2.471410 -53.740234 -1.533203 2.519531 2.000000 -2.000000 0.000000 -76.298828 22.099607 -17.945545 -67.094734 -1.131452 -2.512525 0.563714 66.208359 -8.010813 -2.000000 2.000000 0.000000 45.927734 -16.132814 32.409393 77.247345 0.646125 -2.746325 80.166557 -112.645447 -50.053333 -19.267059 13.973834 20.683964 26.325928 -4.678099 -2.417189 -2.918176 3.880546 -2.485747 -1.729345 -8.902926 -25.414036 22.155767 4.741378 2.029180 -14.231377 -8.152836 9.821831 
-15.660969 51.545311 -4.062643 -4.951172 1.386719 -149.550537 30.895578 -17.341173 -3.922622 -21.054688 7.958985 2.841797 51.063168 8.107644 2.471410 -50.908203 -1.425781 2.802735 2.000000 -2.000000 0.000000 -77.695313 23.574219 -19.804686 -66.390549 -1.119437 -2.474110 0.447038 66.608803 -7.853170 -2.000000 2.000000 0.000000 46.230469 -14.345702 31.608910 77.247078 0.635811 -2.737144 79.208717 -113.242126 -47.326256 -19.126938 13.841620 20.743458 26.370497 -4.766623 -2.449922 -2.305848 3.559993 -3.125176 -2.081135 -9.241469 -25.768982 23.055111 4.712208 1.941807 -14.507639 -8.368320 9.222548 
-15.298429 51.537430 -3.842514 -4.580078 0.869152 -149.511917 30.618727 -17.226093 -3.393450 -21.044922 8.134767 3.056641 51.063168 8.107644 2.471410 -48.085941 -1.298828 2.929688 2.000000 -2.000000 0.000000 -79.257813 25.117188 -21.591797 -65.687088 -1.167616 -2.461529 1.614129 67.048393 -5.885179 -2.000000 2.000000 0.000000 46.474613 -12.695313 30.945118 77.247086 0.626062 -2.737707 77.671951 -113.835426 -44.616005 -18.765600 13.480460 20.119610 25.645248 -4.707665 -2.387361 -1.593144 4.077932 -3.155892 -2.208061 -9.331604 -26.104658 23.929382 4.672213 2.006063 -14.837357 -8.340717 8.538739 
-14.869810 51.608341 -3.622905 -4.404297 0.341797 -149.619110 30.201389 -16.942352 -3.170673 -21.044922 8.134767 3.232422 51.063168 8.107644 2.471410 -45.419922 -1.162109 3.261521 2.000000 -2.000000 0.000000 -80.527344 26.767580 -22.690912 -64.985756 -1.015028 -2.529076 2.755917 67.518875 -3.603478 -2.000000 2.000000 0.000000 46.484375 -11.816405 30.251909 76.907867 0.816949 -2.824449 76.701630 -114.411575 -42.814308 -18.687475 13.226717 19.642076 24.760178 -4.825268 -2.318331 -0.377499 4.438373 -4.084962 -2.345073 -9.435618 -26.263664 24.269234 4.662028 2.041705 -14.616598 -8.357707 7.891476 
